<?xml version="1.0" standalone="no"?><!DOCTYPE svg PUBLIC "-//W3C//DTD SVG 1.1//EN" "http://www.w3.org/Graphics/SVG/1.1/DTD/svg11.dtd"><svg t="1678944839728" class="icon" viewBox="0 0 1492 1024" version="1.1" xmlns="http://www.w3.org/2000/svg" p-id="12592" data-spm-anchor-id="a313x.7781069.0.i23" xmlns:xlink="http://www.w3.org/1999/xlink" width="291.40625" height="200"><path d="M242.983051 225.627119h86.779661v34.711864h-86.779661v-34.711864z m138.847457 0h86.779661v34.711864h-86.779661v-34.711864z m138.847458 0h86.779661v34.711864h-86.779661v-34.711864z m138.847458 0h86.779661v34.711864h-86.779661v-34.711864z m138.847457 0h86.779661v34.711864h-86.779661v-34.711864z m138.847458 0h86.779661v34.711864h-86.779661v-34.711864z m138.847458 0h86.779661v34.711864h-86.779661v-34.711864z m138.847457 0h86.779661v34.711864h-86.779661v-34.711864z m138.847458 0h86.779661v34.711864h-86.779661v-34.711864z m133.796881 16.661695l0.242983 0.416542 0.017356 0.034712a7.445695 7.445695 0 0 1 0.08678 0.138847l0.017356 0.052068 0.034712 0.034712 0.347118 0.590102v0.052067l0.034712 0.034712c0 0.034712 0.017356 0.034712 0.034712 0.052068a3.818305 3.818305 0 0 1 0.034712 0.08678v0.017356a17.668339 17.668339 0 0 1 0.034712 0.052067l0.017356 0.034712 0.034712 0.052068 0.017355 0.034712 0.034712 0.052068 0.017356 0.052068 0.190916 0.364474 0.034711 0.052068 0.017356 0.034712 0.017356 0.052068 0.034712 0.052067a4.755525 4.755525 0 0 1 0.052068 0.08678v0.052068h0.017356l0.017356 0.034712v0.017356l0.034712 0.034712 0.017356 0.052067 0.017356 0.052068 0.034711 0.052068 0.17356 0.364474a6.664678 6.664678 0 0 1 0.034712 0.052068v0.034712l0.017356 0.017356 0.017355 0.034712 0.017356 0.052068 0.034712 0.052068a3.835661 3.835661 0 0 0 0.017356 0.052067l0.017356 0.034712v0.017356l0.034712 0.034712v0.052068h0.017356l0.017356 0.052068 0.017356 0.034711v0.017356l0.034712 0.034712v0.017356l0.017356 0.034712 0.017355 0.052068 0.104136 0.242983 0.017356 0.034712 0.034712 0.052068v0.034711l0.017356 0.017356 0.017356 0.034712v0.017356l0.017356 0.034712v0.017356l0.034712 0.034712v0.052068h0.017355l0.017356 0.052067 0.017356 0.034712a6.872949 6.872949 0 0 0 0.017356 0.052068l0.017356 0.017356v0.034712l0.017356 0.017356v0.034712l0.017356 0.017356 0.017356 0.034711v0.017356l0.017356 0.034712a1.041356 1.041356 0 0 0 0.017356 0.052068l0.034712 0.052068 0.069423 0.173559 0.017356 0.052068 0.017356 0.052068a13.259932 13.259932 0 0 1 0.034712 0.069423v0.017356l0.017356 0.017356v0.034712l0.017356 0.017356v0.034712l0.017356 0.017356 0.017356 0.034712v0.017356l0.017356 0.034712v0.017356l0.017356 0.034711 0.017356 0.052068 0.034712 0.052068v0.052068h0.017356v0.034712l0.017355 0.017356v0.034711l0.017356 0.017356 0.017356 0.034712v0.017356a2.846373 2.846373 0 0 0 0.017356 0.052068l0.017356 0.034712 0.069424 0.190915 0.017356 0.052068 0.017356 0.034712v0.034712l0.017356 0.017356v0.034711l0.017356 0.017356v0.034712l0.017356 0.017356v0.017356l0.034711 0.034712v0.052068l0.017356 0.017356v0.034712l0.017356 0.017355v0.034712l0.017356 0.017356v0.034712l0.017356 0.017356v0.034712l0.017356 0.017356v0.034712l0.017356 0.017356v0.034712l0.017356 0.017355v0.034712l0.017356 0.017356a2.065356 2.065356 0 0 1 0.017356 0.052068v0.034712h0.017356v0.052068l0.034712 0.034712v0.052067l0.017356 0.034712v0.017356l0.017355 0.034712v0.017356l0.017356 0.034712v0.017356l0.017356 0.034712v0.017356l0.017356 0.034711v0.017356l0.017356 0.034712v0.017356l0.017356 0.034712v0.017356l0.017356 0.034712a2.238915 2.238915 0 0 1 0.034712 0.104135v0.017356l0.017356 0.034712v0.034712h0.017356v0.052068h0.017356v0.052068h0.017356v0.052067h0.017356v0.052068l0.017356 0.052068 0.017355 0.052068v0.017356l0.052068 0.104135v0.069424l0.017356 0.034712v0.017356a2.429831 2.429831 0 0 1 0.034712 0.052068v0.052067l0.017356 0.034712v0.017356l0.017356 0.034712v0.052068l0.017356 0.034712v0.017356l0.017356 0.034712v0.017356l0.017356 0.034711v0.052068l0.017356 0.034712a1.058712 1.058712 0 0 1 0.034712 0.069424v0.034712l0.017355 0.052067v0.052068h0.017356v0.052068l0.017356 0.017356v0.052068l0.069424 0.225627a6.751458 6.751458 0 0 1 0.017356 0.052068v0.052067h0.017356v0.052068l0.017356 0.052068 0.017356 0.052068 0.017356 0.052068v0.052067l0.017356 0.017356v0.052068l0.017356 0.034712v0.017356l0.017355 0.052068 0.017356 0.052068v0.052067l0.034712 0.052068 0.138848 0.676882c0.225627 0.954576 0.399186 1.926508 0.520678 2.915796l-34.225899 4.56461 29.487729-17.980745z m-29.487729 17.980745l-0.034711 0.017356L1492.610169 260.338983v66.959186h-34.711864v-66.993898l0.173559-0.034712zM1457.898305 379.365966h34.711864v86.779661h-34.711864v-86.779661z m0 138.847458h34.711864v86.779661h-34.711864v-86.779661z m0 138.847457h34.711864v86.779661h-34.711864v-86.779661z m0 138.847458h34.711864v86.779661h-34.711864v-86.779661z m0 138.847458h34.711864V989.288136h-34.711864v-54.532339zM1341.335864 989.288136h86.779661v34.711864h-86.779661v-34.711864z m-138.847457 0h86.779661v34.711864h-86.779661v-34.711864z m-138.847458 0h86.779661v34.711864h-86.779661v-34.711864z m-138.847457 0h86.779661v34.711864h-86.779661v-34.711864z m-138.847458 0h86.779661v34.711864h-86.779661v-34.711864z m-138.847458 0h86.779661v34.711864h-86.779661v-34.711864z m-138.847457 0h86.779661v34.711864h-86.779661v-34.711864z m-138.847458 0h86.779661v34.711864h-86.779661v-34.711864zM242.983051 989.288136h74.352813v34.711864H242.983051v-34.711864z m-34.711865-96.741967h34.711865v86.779662h-34.711865v-86.779662z m0-138.847457h34.711865v86.779661h-34.711865v-86.779661z m0-138.847458h34.711865v86.779661h-34.711865v-86.779661z m0-138.847457h34.711865v86.779661h-34.711865v-86.779661z m0-138.847458h34.711865v86.779661h-34.711865v-86.779661zM208.271186 260.338983h34.711865v24.749559h-34.711865V260.338983z" fill="#db639b" p-id="12593" data-spm-anchor-id="a313x.7781069.0.i27" class=""></path><path d="M1249.627119 781.016949H34.711864c-9.563119 0-17.355932-7.792814-17.355932-17.355932V34.711864c0-9.563119 7.792814-17.355932 17.355932-17.355932h1214.915255c9.563119 0 17.355932 7.792814 17.355932 17.355932v728.949153c0 9.563119-7.792814 17.355932-17.355932 17.355932z" fill="#db639b" p-id="12594" data-spm-anchor-id="a313x.7781069.0.i26" class=""></path><path d="M34.711864 34.711864v728.949153h1214.915255V34.711864H34.711864m0-34.711864h1214.915255a34.711864 34.711864 0 0 1 34.711864 34.711864v728.949153a34.711864 34.711864 0 0 1-34.711864 34.711864H34.711864a34.711864 34.711864 0 0 1-34.711864-34.711864V34.711864a34.711864 34.711864 0 0 1 34.711864-34.711864z" fill="#d4237a" p-id="12595" data-spm-anchor-id="a313x.7781069.0.i22" class=""></path><path d="M69.423729 69.423729h1145.491525v659.525424H69.423729z" fill="#1196db" p-id="12596" data-spm-anchor-id="a313x.7781069.0.i11" class=""></path><path d="M138.847458 138.847458h260.338983v225.627118H138.847458z" fill="#1cb97d" p-id="12597" data-spm-anchor-id="a313x.7781069.0.i14" class=""></path><path d="M138.847458 433.898305h260.338983v225.627119H138.847458z" fill="#1cb97d" p-id="12598" data-spm-anchor-id="a313x.7781069.0.i13" class=""></path><path d="M867.79661 138.847458h277.694915v225.627118H867.79661z" fill="#1cb97d" p-id="12599" data-spm-anchor-id="a313x.7781069.0.i15" class=""></path><path d="M867.79661 433.898305h277.694915v225.627119H867.79661z" fill="#1cb97d" p-id="12600" data-spm-anchor-id="a313x.7781069.0.i16" class=""></path><path d="M468.610169 138.847458h329.762712v520.677966H468.610169z" fill="#1cb97d" p-id="12601" data-spm-anchor-id="a313x.7781069.0.i12" class=""></path><path d="M899.731525 821.282712a14.318644 14.318644 0 0 0 16.540204 11.680542 14.318644 14.318644 0 0 0 8.10522-4.373695l37.610305-40.456678 66.195526 81.815865a14.301288 14.301288 0 0 0 20.132881 2.134779l47.329627-38.304542a14.336 14.336 0 0 0 2.13478-20.184949l-66.195526-81.763797 47.416407-28.307525a14.301288 14.301288 0 0 0 5.050576-19.612204 14.301288 14.301288 0 0 0-7.046508-5.97044l-193.813695-78.188475a14.370712 14.370712 0 0 0-18.692339 8.035797 14.405424 14.405424 0 0 0-0.815729 7.758102z" fill="#4F5460" p-id="12602"></path><path d="M1039.516203 693.629831l-36.794576 21.97261a14.318644 14.318644 0 0 0-5.03322 19.612203 14.24922 14.24922 0 0 0 1.214915 1.735593l67.584 83.516746-25.027254 20.237017-67.584-83.516746a14.266576 14.266576 0 0 0-10.673899-5.328271 14.405424 14.405424 0 0 0-10.951593 4.56461l-29.175322 31.414238-26.571932-151.951187 143.047593 57.725831z" fill="#FFFFFF" p-id="12603"></path></svg>